# xmcd
#
# Track frame offsets:
#	150
#	10157
#	20409
#	32687
#	43427
#	52390
#	62350
#	71967
#	81249
#	91758
#	102727
#	113334
#	123024
#	133029
#	143218
#	153999
#	164633
#	175443
#	183607
#	193700
#	204021
#	214126
#	222717
#	231705
#	243113
#	252417
#
# Disc length: 3487 seconds
#
# Revision: 0
# Processed by: cddbd v1.4PL0 Copyright (c) Steve Scherf et al.
# Submitted via: EasyCDDAExtractor 4.6.0.1
#
DISCID=880d9d1a
DTITLE=Various Artist - Explosive Doo-Wops  Vol 8
DYEAR=1900
DGENRE=Blues
TTITLE0=Five Trojans - Alone In This World
TTITLE1=Starfires - Love Is Here To Stay
TTITLE2=Hi-Liters (Buddy Roberts and the) - Ding Dong
TTITLE3=Serenaders - I Wrote A Letter
TTITLE4=Jo-Ann and group - Baby Doll
TTITLE5=Execptions - Down By The Ocean
TTITLE6=Dreamers (Donnie and the) - My Memories Of You
TTITLE7=Episodes - Where Is My Love
TTITLE8=Toby Grogan and group - Angel
TTITLE9=Angels (Gabriel and the) - Zing
TTITLE10=Fairlanes - Playboy
TTITLE11=Songspinners - Duffy
TTITLE12=Reactions - Just A Little Love
TTITLE13=John Capri - When I'm Lonely
TTITLE14=Starfires - Each Night At Nine
TTITLE15=Skylites - Oh Happy Day
TTITLE16=Personalities - Woe Woe Baby
TTITLE17=Possessions - No More Love
TTITLE18=Gleams - You Broke My Heart
TTITLE19=Tangiers - Ping Pong
TTITLE20=V Classics - Come On Baby
TTITLE21=Ultimates - I Can Tell You Love Me Too
TTITLE22=Don Dell (bb The Montereys) - Make Believe Love
TTITLE23=Ben Zeppa (bb The Four Jacks - Why Do Fools Fall In Love
TTITLE24=Kings - Come On Little Baby
TTITLE25=Latin Lads (Julito and the) - Nunca
EXTD=
EXTT0=
EXTT1=
EXTT2=
EXTT3=
EXTT4=
EXTT5=
EXTT6=
EXTT7=
EXTT8=
EXTT9=
EXTT10=
EXTT11=
EXTT12=
EXTT13=
EXTT14=
EXTT15=
EXTT16=
EXTT17=
EXTT18=
EXTT19=
EXTT20=
EXTT21=
EXTT22=
EXTT23=
EXTT24=
EXTT25=
PLAYORDER=
